<svg xmlns="http://www.w3.org/2000/svg" viewBox="0 0 513 513" width="513" height="513">
	<style>
		tspan { white-space:pre }
		.shp0 { fill: #062a78 } 
	</style>
	<g id="Layer">
		<g id="Layer">
			<path id="Layer" fill-rule="evenodd" class="shp0" d="M442.51 106.98C487.32 151.79 512.01 211.37 512.01 274.75C512.01 338.12 487.33 397.7 442.51 442.51C397.7 487.32 338.12 512 274.75 512C211.37 512 151.79 487.32 106.98 442.51C62.17 397.7 37.49 338.12 37.49 274.75C37.49 257.36 39.41 240.01 43.2 223.05L17.72 216.27C11.33 214.55 5.9 210.31 2.8 204.61C-0.22 199.08 -0.82 192.73 1.11 186.73L1.11 186.73C6.27 170.7 12.85 155.08 20.71 140.2C16.64 132.72 16.52 123.85 20.79 116.41C45.17 72.89 72.89 45.17 116.42 20.78C123.86 16.52 132.72 16.64 140.2 20.71C155.08 12.84 170.71 6.26 186.73 1.11C192.73 -0.82 199.08 -0.22 204.61 2.79C210.31 5.9 214.55 11.33 216.26 17.7L223.05 43.19C240.01 39.41 257.36 37.49 274.75 37.49C338.12 37.49 397.7 62.17 442.51 106.98ZM20.35 195.04C20.85 195.95 21.77 196.65 22.88 196.95L77.45 211.49C87.45 180.34 105.02 151.6 128.31 128.31C151.6 105.02 180.34 87.45 211.48 77.45L196.94 22.87C196.65 21.77 195.95 20.85 195.04 20.36C194.34 19.97 193.62 19.91 192.85 20.15C176.04 25.56 159.7 32.65 144.29 41.24C140.39 43.42 135.51 42.74 132.35 39.58C130.41 37.63 128.17 37.1 126.35 38.14C126.31 38.17 126.28 38.19 126.24 38.21C85.63 60.95 60.95 85.63 38.21 126.24C38.19 126.28 38.16 126.32 38.14 126.36C37.1 128.17 37.63 130.41 39.57 132.36C42.73 135.52 43.41 140.39 41.24 144.3C32.65 159.7 25.56 176.04 20.15 192.85C19.9 193.62 19.97 194.34 20.35 195.04ZM492.01 274.75C492.01 154.95 394.54 57.49 274.75 57.49C259.1 57.49 243.49 59.19 228.21 62.54L231.34 74.3C232.85 79.93 230.9 86.16 226.89 90.67C232.22 115.32 222.83 134.82 198.88 148.68C188.67 154.85 179.2 162.27 170.74 170.74C162.27 179.2 154.85 188.67 148.68 198.88C137.33 218.49 122.2 228.35 103.56 228.35C99.44 228.35 95.14 227.86 90.68 226.89C87.2 229.98 82.7 231.85 78.24 231.85C76.91 231.85 75.58 231.69 74.28 231.34L62.54 228.21C59.19 243.48 57.49 259.1 57.49 274.75C57.49 394.54 154.95 492 274.75 492C394.54 492 492.01 394.54 492.01 274.75ZM188.79 131.41C203.57 122.88 209.63 113.31 208.18 99.81C183.68 109.17 161.13 123.77 142.45 142.45C123.77 161.13 109.17 183.68 99.81 208.18C113.32 209.63 122.88 203.57 131.41 188.79C131.44 188.73 131.48 188.68 131.51 188.62C138.52 177 146.96 166.22 156.59 156.59C166.23 146.96 177 138.52 188.62 131.51C188.68 131.47 188.73 131.44 188.79 131.41Z" />
			<path id="Layer" class="shp0" d="M82.79 163.82C85.53 159.02 83.86 152.91 79.06 150.17C74.27 147.43 68.16 149.1 65.42 153.89L65.42 153.9C62.68 158.7 64.34 164.8 69.14 167.54C70.7 168.44 72.41 168.86 74.09 168.86C77.56 168.86 80.94 167.05 82.79 163.82Z" />
			<path id="Layer" class="shp0" d="M158.87 84.1C160.66 84.1 162.47 83.62 164.1 82.62C168.81 79.72 170.27 73.56 167.38 68.86C164.48 64.15 158.32 62.69 153.62 65.58L153.62 65.59C148.91 68.48 147.45 74.64 150.34 79.34C152.23 82.41 155.51 84.1 158.87 84.1Z" />
			<path id="Layer" class="shp0" d="M274.75 154.75C208.58 154.75 154.75 208.58 154.75 274.75C154.75 322.43 182.98 365.6 226.68 384.72C227.98 385.29 229.34 385.56 230.68 385.56C234.54 385.56 238.21 383.32 239.85 379.57C242.06 374.51 239.76 368.61 234.7 366.4C198.28 350.46 174.75 314.48 174.75 274.75C174.75 219.61 219.61 174.75 274.75 174.75C329.89 174.75 374.75 219.61 374.75 274.75C374.75 314.48 351.22 350.46 314.8 366.4C309.74 368.61 307.43 374.51 309.65 379.57C311.86 384.63 317.76 386.93 322.82 384.72C366.51 365.59 394.75 322.43 394.75 274.75C394.75 208.58 340.91 154.75 274.75 154.75L274.75 154.75Z" />
			<path id="Layer" class="shp0" d="M284.75 204.75C284.75 199.23 280.27 194.75 274.75 194.75L274.74 194.75C269.22 194.75 264.74 199.23 264.74 204.75C264.74 210.27 269.22 214.75 274.75 214.75C280.27 214.75 284.75 210.27 284.75 204.75Z" />
			<path id="Layer" class="shp0" d="M235.56 205.04L235.55 205.05C230.54 207.36 228.35 213.3 230.66 218.32C232.35 221.97 235.97 224.13 239.75 224.13C241.15 224.13 242.58 223.83 243.94 223.21C248.95 220.89 251.14 214.95 248.83 209.94C246.51 204.92 240.57 202.73 235.56 205.05L235.56 205.04Z" />
			<path id="Layer" class="shp0" d="M219.67 231.43C215.08 228.36 208.87 229.6 205.8 234.2L205.8 234.2C202.74 238.8 203.98 245.01 208.58 248.07C210.28 249.21 212.21 249.75 214.11 249.75C217.35 249.75 220.52 248.19 222.45 245.29C225.51 240.7 224.27 234.49 219.67 231.43L219.67 231.43Z" />
			<path id="Layer" class="shp0" d="M214.75 274.75C214.75 269.22 210.27 264.75 204.75 264.75C199.22 264.75 194.75 269.22 194.75 274.75L194.75 274.75C194.75 280.27 199.22 284.75 204.75 284.75C210.27 284.75 214.75 280.27 214.75 274.75Z" />
			<path id="Layer" class="shp0" d="M205.19 314.22C206.94 317.73 210.47 319.75 214.13 319.75C215.64 319.75 217.16 319.41 218.6 318.69C223.54 316.22 225.54 310.21 223.07 305.27C220.6 300.33 214.59 298.33 209.65 300.8C204.71 303.27 202.71 309.28 205.18 314.22L205.19 314.22Z" />
			<path id="Layer" class="shp0" d="M244.99 326.85C240.28 323.95 234.13 325.42 231.23 330.12C228.33 334.83 229.8 340.99 234.5 343.88L234.51 343.89C236.14 344.89 237.95 345.37 239.74 345.37C243.1 345.37 246.38 343.68 248.27 340.61C251.16 335.9 249.69 329.74 244.99 326.85L244.99 326.85Z" />
			<path id="Layer" class="shp0" d="M274.75 354.74C280.28 354.74 284.75 350.27 284.75 344.74C284.75 339.22 280.27 334.74 274.75 334.74C269.22 334.74 264.75 339.22 264.75 344.74C264.75 350.27 269.22 354.74 274.75 354.74L274.75 354.74Z" />
			<path id="Layer" class="shp0" d="M314.99 343.88L314.99 343.88C319.7 340.98 321.16 334.83 318.26 330.12C315.37 325.42 309.21 323.95 304.5 326.85C299.8 329.74 298.33 335.9 301.23 340.61C303.12 343.68 306.4 345.37 309.75 345.37C311.54 345.37 313.35 344.89 314.99 343.88L314.99 343.88Z" />
			<path id="Layer" class="shp0" d="M340.41 301.1C335.64 298.32 329.51 299.94 326.73 304.71C323.95 309.48 325.56 315.6 330.33 318.38C331.91 319.31 333.65 319.75 335.36 319.75C338.8 319.75 342.15 317.97 344 314.78L344.01 314.78C346.79 310.01 345.18 303.89 340.41 301.1L340.41 301.1Z" />
			<path id="Layer" class="shp0" d="M354.74 274.75L354.74 274.74C354.74 269.22 350.27 264.74 344.74 264.74C339.22 264.74 334.74 269.22 334.74 274.75C334.74 280.27 339.22 284.75 344.74 284.75C350.27 284.75 354.74 280.27 354.74 274.75L354.74 274.75Z" />
			<path id="Layer" class="shp0" d="M343.68 234.19C340.62 229.6 334.41 228.36 329.82 231.42C325.22 234.49 323.98 240.7 327.05 245.29C328.97 248.18 332.14 249.75 335.38 249.75C337.28 249.75 339.21 249.2 340.91 248.07C345.51 245 346.75 238.79 343.69 234.2L343.68 234.19Z" />
			<path id="Layer" class="shp0" d="M309.74 224.13C313.09 224.13 316.37 222.44 318.26 219.37C321.16 214.66 319.69 208.5 314.99 205.61L314.98 205.61C310.28 202.71 304.12 204.18 301.23 208.88C298.33 213.59 299.8 219.75 304.5 222.64C306.14 223.65 307.95 224.13 309.74 224.13L309.74 224.13Z" />
			<path id="Layer" fill-rule="evenodd" class="shp0" d="M234.75 274.75C234.75 252.69 252.69 234.74 274.75 234.74C296.8 234.74 314.75 252.69 314.75 274.75C314.75 296.8 296.8 314.75 274.75 314.75C252.69 314.75 234.75 296.8 234.75 274.75ZM254.75 274.75C254.75 285.77 263.72 294.75 274.75 294.75C285.77 294.75 294.75 285.77 294.75 274.75C294.75 263.72 285.77 254.74 274.75 254.74C263.72 254.74 254.75 263.72 254.75 274.75Z" />
			<path id="Layer" class="shp0" d="M260.43 130.91C262.01 131.82 263.73 132.25 265.42 132.25C268.88 132.25 272.24 130.46 274.09 127.25L292.72 94.98C295.48 90.2 293.84 84.09 289.06 81.32C284.28 78.56 278.16 80.2 275.4 84.98L256.77 117.25C254.01 122.03 255.65 128.15 260.43 130.91L260.43 130.91Z" />
			<path id="Layer" class="shp0" d="M122.24 294.06C125.7 294.06 129.06 292.27 130.91 289.06C133.67 284.28 132.03 278.16 127.25 275.4L94.98 256.77C90.2 254.01 84.09 255.65 81.32 260.43C78.56 265.21 80.2 271.33 84.98 274.09L117.25 292.72C118.82 293.63 120.54 294.06 122.24 294.06L122.24 294.06Z" />
			<path id="Layer" class="shp0" d="M147.34 349.06L110.08 349.06C104.56 349.06 100.08 353.54 100.08 359.06C100.08 364.58 104.56 369.06 110.08 369.06L147.34 369.06C152.86 369.06 157.34 364.58 157.34 359.06C157.34 353.54 152.86 349.06 147.34 349.06Z" />
			<path id="Layer" class="shp0" d="M201.56 402.81L169.3 421.44C164.52 424.2 162.88 430.31 165.64 435.1C167.49 438.3 170.85 440.1 174.31 440.1C176 440.1 177.72 439.67 179.3 438.76L211.56 420.13C216.35 417.37 217.99 411.25 215.22 406.47C212.46 401.69 206.35 400.05 201.56 402.81L201.56 402.81Z" />
			<path id="Layer" class="shp0" d="M289.06 418.58C284.28 415.82 278.16 417.46 275.4 422.24L256.77 454.51C254.01 459.29 255.65 465.41 260.43 468.17C262.01 469.08 263.73 469.51 265.42 469.51C268.88 469.51 272.24 467.72 274.09 464.51L292.72 432.24C295.48 427.46 293.84 421.34 289.06 418.58L289.06 418.58Z" />
			<path id="Layer" class="shp0" d="M359.06 392.15C353.54 392.15 349.06 396.63 349.06 402.15L349.06 439.41C349.06 444.93 353.54 449.41 359.06 449.41C364.58 449.41 369.06 444.93 369.06 439.41L369.06 402.15C369.06 396.63 364.58 392.15 359.06 392.15Z" />
			<path id="Layer" class="shp0" d="M420.13 337.93C417.37 333.15 411.25 331.5 406.47 334.27C401.69 337.03 400.05 343.14 402.81 347.93L421.44 380.19C423.29 383.4 426.65 385.19 430.11 385.19C431.8 385.19 433.52 384.76 435.1 383.85C439.88 381.09 441.52 374.98 438.76 370.19L420.13 337.93Z" />
			<path id="Layer" class="shp0" d="M464.51 275.4L432.24 256.77C427.46 254.01 421.34 255.65 418.58 260.43C415.82 265.22 417.46 271.33 422.24 274.09L454.51 292.72C456.08 293.63 457.8 294.06 459.5 294.06C462.95 294.06 466.32 292.27 468.17 289.06C470.93 284.28 469.29 278.16 464.51 275.4Z" />
			<path id="Layer" class="shp0" d="M439.41 200.43C444.93 200.43 449.41 195.95 449.41 190.43C449.41 184.91 444.93 180.43 439.41 180.43L402.15 180.43C396.63 180.43 392.15 184.91 392.15 190.43C392.15 195.95 396.63 200.43 402.15 200.43L439.41 200.43Z" />
			<path id="Layer" class="shp0" d="M342.94 148.02C344.63 148.02 346.35 147.59 347.93 146.68L380.19 128.05C384.98 125.29 386.62 119.18 383.85 114.39C381.09 109.61 374.98 107.97 370.19 110.73L337.93 129.36C333.14 132.12 331.51 138.24 334.27 143.02C336.12 146.23 339.48 148.02 342.94 148.02L342.94 148.02Z" />
			<path id="Layer" class="shp0" d="M274.75 394.75C280.28 394.75 284.75 390.27 284.75 384.75C284.75 379.22 280.28 374.75 274.75 374.75L274.75 374.75C269.22 374.75 264.75 379.22 264.75 384.75C264.75 390.27 269.23 394.75 274.75 394.75Z" />
		</g>
	</g>
</svg>