<svg xmlns="http://www.w3.org/2000/svg" viewBox="0 0 548 442" width="548" height="442">
	<defs>
		<clipPath clipPathUnits="userSpaceOnUse" id="cp1">
			<path d="M0 0L548 0L548 442L0 442Z" />
		</clipPath>
	</defs>
	<style>
		tspan { white-space:pre }
		.shp0 { fill: #ffffff} 
		.txt1 { font-size: 306px;fill: #ffffff;font-weight: bold;font-family: "Myriad Pro" } 
	</style>
	<g id="Page 1" clip-path="url(#cp1)">
		<path id="Path 1" fill-rule="evenodd" class="shp0" d="M548.34 315.21L548.34 350.09C548.34 375.97 527.72 397.35 501.84 397.35L488.96 397.35C483.6 418.29 467.16 434.61 446.22 440.07C414.34 448.35 381.8 429.23 373.52 397.35L193.14 397.35C187.76 418.29 171.34 434.61 150.4 440.07C118.5 448.35 85.98 429.23 77.7 397.35L70.84 397.35C44.96 397.35 24.34 375.97 24.34 350.09L24.34 319.49C24.34 305.77 30.32 293.11 40.1 284.41C45.32 279.75 51.64 276.23 58.7 274.29L60.06 273.91C65.58 280.13 71.58 285.91 78.04 291.15L64.28 294.91C60.68 295.91 57.44 297.67 54.72 299.95C49.08 304.67 45.64 311.75 45.7 319.49L45.7 350.09C45.7 364.17 56.66 375.87 70.72 375.87L76.1 375.87C78.08 357.53 88.36 341.67 103.18 332.19C110.72 327.35 119.44 324.17 128.82 323.15C150.64 320.71 171.04 330.39 183.26 346.81C189.38 355.03 193.46 364.93 194.64 375.87L371.92 375.87C374.92 348.17 396.84 326.15 424.64 323.15C457.4 319.49 486.92 343.11 490.46 375.87L501.84 375.87C515.92 375.87 526.86 364.17 526.86 350.09L526.76 350.09L526.76 315.21C526.86 305.21 521.06 296.19 512.04 292.01L467.16 271.49C465.34 270.63 463.62 269.25 462.54 267.41L423.68 205.35C416.92 194.41 404.78 187.85 391.9 187.95L324.3 187.95C324.76 183.23 324.98 178.43 324.98 173.59C324.98 171.21 324.92 168.85 324.8 166.49L391.9 166.49C412.18 166.37 431.08 176.79 441.82 193.97L478.98 253.25L521.06 272.47C537.7 280.09 548.44 296.83 548.34 315.21ZM173.48 382.21C173.48 361.15 156.42 344.09 135.36 344.09C114.32 344.09 97.24 361.15 97.24 382.21C97.24 403.25 114.32 420.33 135.36 420.33C156.52 420.21 173.6 403.15 173.48 382.21ZM469.32 382.21C469.32 361.15 452.24 344.09 431.2 344.09C410.14 344.09 393.08 361.15 393.08 382.21C393.08 403.25 410.14 420.33 431.2 420.33C452.34 420.21 469.42 403.15 469.32 382.21Z" />
		<path id="Path 2" fill-rule="evenodd" class="shp0" d="M346.98 173.59C346.98 178.43 346.78 183.21 346.38 187.95C339.34 273.71 269.64 341.99 183.26 346.81C180.02 346.99 176.76 347.09 173.48 347.09C148.46 347.09 124.68 341.77 103.18 332.19C85.22 324.21 68.86 313.25 54.72 299.95C49.54 295.07 44.66 289.89 40.1 284.41C15.08 254.33 0 215.69 0 173.59C0 77.93 77.82 0.09 173.48 0.09C266.78 0.09 343.1 74.11 346.82 166.49C346.94 168.85 346.98 171.21 346.98 173.59ZM324.3 187.95C324.76 183.23 324.98 178.43 324.98 173.59C324.98 171.21 324.92 168.85 324.8 166.49C321.1 86.23 254.64 22.09 173.48 22.09C89.96 22.09 22 90.05 22 173.59C22 212.03 36.4 247.17 60.06 273.91C65.58 280.13 71.58 285.91 78.04 291.15C104.1 312.37 137.34 325.09 173.48 325.09C252.18 325.09 317.04 264.79 324.3 187.95Z" />
		<text id="+ " style="transform: matrix(1,0,0,1,83.505,261.799)" >
			<tspan x="0" y="0" class="txt1">+</tspan>
		</text>
	</g>
</svg>